<svg xmlns="http://www.w3.org/2000/svg" width="598" height="598" viewBox="0 0 598 598" xmlns:xlink="http://www.w3.org/1999/xlink">
  <defs>
    <path id="a" d="M2.9029,149.07595 C0,140.4441 0,134.8181 0,114.76605 L0,59.23395 C0,39.1819 0,33.55445 2.9029,24.92405 C6.6323,14.7175 14.7175,6.63375 24.92405,2.90145 C33.5559,0 39.1819,0 59.23395,0 L114.76605,0 C134.8181,0 140.4441,0 149.0774,2.90145 C159.2825,6.63375 167.3677,14.7175 171.0971,24.92405 C174,33.55445 174,39.1819 174,59.23395 L174,114.76605 C174,134.8181 174,140.4441 171.0971,149.07595 C167.3677,159.2825 159.2825,167.3677 149.0774,171.0971 C140.4441,174 134.8181,174 114.76605,174 L59.23395,174 C39.1819,174 33.5559,174 24.92405,171.0971 C14.7175,167.3677 6.6323,159.2825 2.9029,149.07595 Z"/>
  </defs>
  <g fill="none" fill-rule="evenodd">
    <rect width="600" height="600" x="-1" fill="#E2004F"/>
    <path fill="#FFFFFF" d="M678.812644 379.332768L607.342005 357.329929 604.540512 429.237435 592.324701 432.886007 574.185578 347.125068 531.251074 333.906653 513.8449 401.641975 502.220877 404.421574 499.120776 324.013731 450.822173 309.140926 421.743113 376.436191 413.268054 378.023738 415.580915 303.759979 342.736675 300 297.05497 330.447473 293.737699 378.814726 312.522902 406.510452 627.359647 507.155336 702.413592 481.788012 716.480777 430.708004 678.812644 379.332768 678.812644 379.332768zM702.190992 500.275967L605.056291 540.816895 559.510317 503.707296 506.765159 510.982159 464.308428 465.984961 404.494387 468.725568 359.817093 432.28441 289.790634 425.55544 287 454.29839 350.771964 465.082566 389.623673 498.315208 454.796383 503.300662 500.038319 541.346077 549.265323 539.864367 598.953814 573.587199 712.240533 526.12234 702.190992 500.275967 702.190992 500.275967zM294.562944 472.318436L296.294875 503.712867 306.952492 524.078026 578.496402 628.365912 628.624663 635.250851 676.206605 620.60643 699.047457 589.785744 702.429879 555.550441 626.556119 587.07856 592.672173 590.754983 294.562944 472.318436 294.562944 472.318436zM-32.0853347 153.251624L-29.7295836 196.896134 234.725 191.691453 234.611517 145.838775-32.0853347 153.251624-32.0853347 153.251624zM-50 137.545071L-43.1479731 104.535164-10.4100766 113.846476 21.7408387 92.8708865 67.4823248 113.416104 99.6215 87.3806316 153.588549 106.763444 198.520001 71.3040389 217.772984 96.3782142 157.32175 140.030769 107.377478 117.21705 70.7772457 140.996088 29.3128958 125.044183-8.91131803 142.629087-50 137.545071-50 137.545071zM162.757195-10L-6.83731789 14.3984516-37.0238029 94.1620014C-38.15472 94.3550653 220.582667 55.3641999 220.582667 55.3641999L162.757195-10 162.757195-10zM-43.1479731 213.92598L5.93539239 284.205265 183.176314 277.830134 227.043373 204.7474C228.189943 204.699134-43.1479731 213.92598-43.1479731 213.92598L-43.1479731 213.92598z" opacity=".363"/>
    <g transform="translate(214 216)">
      <mask id="b" fill="white">
        <use xlink:href="#a"/>
      </mask>
      <use fill="#333333" xlink:href="#a"/>
      <g mask="url(#b)">
        <rect width="174" height="174" fill="#00CCBC"/>
        <path fill="#FFFFFF" d="M77.4511013,97.9497057 C78.0751073,95.5499173 81.0154666,95.1922049 82.4872601,95.1664238 C83.0456379,95.1567559 83.5943329,95.2684739 84.1032205,95.4983552 C85.1430513,95.9688598 86.9047924,96.9748588 87.2614441,98.5072214 C87.7746352,100.713652 87.2797339,102.565055 85.6982014,104.011481 C84.116131,105.456295 82.0257109,105.32363 79.8121033,104.587258 C77.596344,103.853572 76.6129966,101.180397 77.4511013,97.9497057 L77.4511013,97.9497057 Z M98.9841502,102.326043 C99.103572,101.497826 99.4338648,100.718486 99.9535112,100.062142 C100.667891,99.1581935 101.859957,97.9813949 103.235998,97.9443346 C105.473813,97.8857901 107.400162,98.8885664 108.487869,100.702372 C109.578804,102.513493 109.033337,104.507766 107.883229,106.503651 C106.733121,108.495239 103.719603,108.758958 100.755574,107.30931 C98.7555273,106.330703 98.766286,103.842292 98.9841502,102.326043 L98.9841502,102.326043 Z M38.1489432,131.636976 L114.779571,147.9 L132.304995,108.598364 L140.65,29.3253198 L109.912324,26.1 L104.259153,79.8068117 L94.6204116,34.5304113 L64.3894719,40.9461391 L74.0282131,86.2230766 L30.45,95.4714999 L38.1489432,131.636976 L38.1489432,131.636976 Z"/>
      </g>
    </g>
  </g>
</svg>
