<svg xmlns="http://www.w3.org/2000/svg" viewBox="0 0 289.5 77.7"><defs><style>.a{fill:#fff;}.b{isolation:isolate;}</style></defs><title>logo-blanc1</title><path class="a" d="M50.9,0L47.3,34.3,41.1,5.4,21.7,9.5l6.2,28.9L0,44.3,4.9,67.4,54,77.7l11.2-25L70.6,2.1,50.9,0h0ZM35.4,49.7c-1,.9-2.4.8-3.8,0.4s-2-2.2-1.5-4.2,2.3-1.8,3.2-1.8l1,0.2a3,3,0,0,1,2,3.9,2.9,2.9,0,0,1-.9,1.5h0Zm14.2,1.6c-0.7,1.3-2.7,1.4-4.6.5s-1.3-2.2-1.1-3.2a3.5,3.5,0,0,1,.6-1.4,3.2,3.2,0,0,1,2.1-1.3A3.6,3.6,0,0,1,50,47.7a3.2,3.2,0,0,1-.4,3.6h0Z"/><g class="b"><path class="a" d="M87.9,44.6H88L89.5,42l4.3-6.3h7.9l-7.5,8.5,8.6,12.5h-8l-5.1-8.6-1.7,2.1v6.6H81.4V26.2h6.5V44.6Z"/><path class="a" d="M116.8,56.7l-0.4-2.1h-0.1a7.6,7.6,0,0,1-6,2.6,6.4,6.4,0,0,1-6.8-6.4c0-5.5,4.9-8.1,12.3-8V42.4c0-1.1-.6-2.7-3.8-2.7a11.8,11.8,0,0,0-5.8,1.6L105,37.1a17.3,17.3,0,0,1,8.2-1.8c7,0,9.2,4.1,9.2,9.1v7.3a32.5,32.5,0,0,0,.3,5.1h-5.9Zm-0.8-9.9c-3.4,0-6.1.8-6.1,3.3a2.3,2.3,0,0,0,2.6,2.5,3.6,3.6,0,0,0,3.4-2.4,4.7,4.7,0,0,0,.1-1.1V46.8Z"/><path class="a" d="M127.6,42.4c0-2.6-.1-4.9-0.2-6.7h5.7l0.3,2.9h0.1a7.7,7.7,0,0,1,6.5-3.4c4.3,0,7.5,2.8,7.5,9V56.7H141V45.1c0-2.7-.9-4.6-3.3-4.6a3.5,3.5,0,0,0-3.3,2.5,4.5,4.5,0,0,0-.3,1.6V56.7h-6.5V42.4Z"/><path class="a" d="M172.9,35.7c-0.1,1.3-.2,3.1-0.2,6.2V53.7c0,4-.8,7.4-3.2,9.5s-5.5,2.6-8.6,2.6a16.4,16.4,0,0,1-7.6-1.6l1.3-4.9a12.9,12.9,0,0,0,6.1,1.6c3.1,0,5.5-1.7,5.5-5.5V53.8h-0.1a6.7,6.7,0,0,1-5.7,2.8c-5.2,0-8.9-4.2-8.9-10.3s4.4-11.1,9.5-11.1a6.3,6.3,0,0,1,5.8,3H167l0.2-2.5h5.7Zm-6.7,8.6a5.2,5.2,0,0,0-.1-1.2,3.6,3.6,0,0,0-3.5-2.9c-2.4,0-4.3,2.2-4.3,6s1.5,5.6,4.3,5.6a3.5,3.5,0,0,0,3.4-2.7,5.6,5.6,0,0,0,.2-1.7V44.3Z"/><path class="a" d="M198.7,46c0,7.7-5.5,11.2-11.1,11.2s-10.9-4-10.9-10.8,4.5-11.1,11.2-11.1S198.7,39.7,198.7,46Zm-15.2.2c0,3.6,1.5,6.3,4.3,6.3S192,50,192,46.2s-1.2-6.3-4.2-6.3S183.5,43.1,183.5,46.2Z"/><path class="a" d="M222.6,50c0,2.8.1,5,.2,6.8h-5.7l-0.3-3h-0.1a7.5,7.5,0,0,1-6.6,3.4c-4.3,0-7.4-2.7-7.4-9.2V35.7h6.6V47c0,3.1,1,4.9,3.3,4.9a3.5,3.5,0,0,0,3.3-2.3,3.7,3.7,0,0,0,.2-1.4V35.7h6.6V50Z"/><path class="a" d="M227.8,42.6c0-3.1-.1-5.1-0.2-6.9h5.6l0.2,3.9h0.2a6.2,6.2,0,0,1,5.7-4.3h1.4v6.1l-1.8-.2a4.2,4.2,0,0,0-4.5,3.3,7.6,7.6,0,0,0-.1,1.5V56.7h-6.5V42.6Z"/><path class="a" d="M264.6,46c0,7.7-5.5,11.2-11.1,11.2s-10.9-4-10.9-10.8,4.5-11.1,11.2-11.1S264.6,39.7,264.6,46Zm-15.2.2c0,3.6,1.5,6.3,4.3,6.3s4.2-2.5,4.2-6.3-1.2-6.3-4.2-6.3S249.4,43.1,249.4,46.2Z"/><path class="a" d="M289.5,46c0,7.7-5.5,11.2-11.1,11.2s-10.9-4-10.9-10.8,4.5-11.1,11.2-11.1S289.5,39.7,289.5,46Zm-15.2.2c0,3.6,1.5,6.3,4.3,6.3s4.2-2.5,4.2-6.3-1.2-6.3-4.2-6.3S274.3,43.1,274.3,46.2Z"/></g></svg>