<svg xmlns="http://www.w3.org/2000/svg" viewBox="0 0 289.9 77.7"><defs><style>.a{fill:#fff;}</style></defs><title>logo-blanc</title><path class="a" d="M115.2,80h6.6l-1.1-5.1V44.3h-6.3V58.3a9.8,9.8,0,0,0-7.6-3.5c-6.3,0-11.2,5.2-11.2,12.9s4.9,12.9,11.2,12.9a9.9,9.9,0,0,0,7.8-3.6l0.7,3.1h0Zm125-18.4a6,6,0,0,1,3.6,1.1l3-6.8a8.6,8.6,0,0,0-4.6-1.2,7.7,7.7,0,0,0-6.7,3.7l-0.7-3.1h-6.5l1,4.8V80h6.3V64.3a4.9,4.9,0,0,1,4.6-2.6h0Zm18.5,12.3a6,6,0,0,1-6.4-6.2c0-3.8,2.7-6.2,6.4-6.2s6.4,2.4,6.4,6.2a6,6,0,0,1-6.4,6.2h0Zm-157-6.2c0-3.8,2.7-6.2,6.4-6.2s6.4,2.4,6.4,6.2A6.4,6.4,0,0,1,101.7,67.7Zm185,6.2a6,6,0,0,1-6.4-6.2c0-3.8,2.7-6.2,6.4-6.2s6.4,2.4,6.4,6.2A6,6,0,0,1,286.7,73.9ZM137.1,61.1c3.3,0,5.4,1.5,6.1,4.4H131.1c0.7-2.8,2.9-4.4,6.1-4.4h0Zm75.6,0c3.3,0,5.4,1.5,6.1,4.4H206.7c0.7-2.8,2.9-4.4,6.1-4.4h0ZM181.9,80h10.2l6.6-24.7h-6.9l-4.8,20-4.9-20h-6.8L181.9,80h0Zm-16.3,0h6.3V55.3h-6.3V80Zm-27.5.5a18.3,18.3,0,0,0,9.9-2.8l-2.4-5.5a15.9,15.9,0,0,1-7.4,1.9c-3.3,0-5.7-1.3-6.7-3.7h17.8a13.8,13.8,0,0,0,.3-2.9c0-7.7-5.3-12.8-12.4-12.8s-12.4,5.2-12.4,12.9,5.2,12.9,13.2,12.9h0ZM299.2,67.7c0-7.7-5.3-12.9-12.5-12.9S274.2,60,274.2,67.7s5.3,12.9,12.5,12.9,12.5-5.2,12.5-12.9h0ZM213.6,80.6a18.3,18.3,0,0,0,9.9-2.8l-2.4-5.5a15.9,15.9,0,0,1-7.4,1.9c-3.3,0-5.7-1.3-6.7-3.7h17.8a13.8,13.8,0,0,0,.3-2.9c0-7.7-5.3-12.8-12.4-12.8S200.4,60,200.4,67.7s5.2,12.9,13.2,12.9h0Zm45.1,0c7.2,0,12.5-5.2,12.5-12.9s-5.3-12.9-12.5-12.9S246.2,60,246.2,67.7s5.3,12.9,12.5,12.9h0ZM153.6,80H160V44.3h-6.3V80h0Zm15.2-28.1a4,4,0,1,0-4-4,3.9,3.9,0,0,0,4,4h0ZM60.2,21.8L56.6,56.1,50.4,27.2,31,31.3l6.2,28.9L9.3,66.1l4.9,23.1L63.3,99.5,74.5,74.5l5.3-50.6L60.2,21.8h0ZM44.7,71.5c-1,.9-2.4.8-3.8,0.4s-2-2.2-1.5-4.2,2.3-1.8,3.2-1.8l1,0.2a3.1,3.1,0,0,1,1,5.4h0Zm14.2,1.6c-0.7,1.3-2.7,1.4-4.6.5s-1.3-2.2-1.1-3.2a3,3,0,0,1,.6-1.4,3.1,3.1,0,0,1,2.1-1.3,3.7,3.7,0,0,1,3.4,1.8c0.7,1.2.3,2.4-.4,3.7h0Z" transform="translate(-9.3 -21.8)"/></svg>