<?xml version="1.0" encoding="utf-8"?>
<!-- Generator: Adobe Illustrator 19.2.0, SVG Export Plug-In . SVG Version: 6.00 Build 0)  -->
<svg version="1.1" id="Calque_1" xmlns="http://www.w3.org/2000/svg" xmlns:xlink="http://www.w3.org/1999/xlink" x="0px" y="0px"
	 viewBox="0 0 289.9 77.7" style="enable-background:new 0 0 289.9 77.7;" xml:space="preserve">
<style type="text/css">
	.st0{fill:#45B9B2;}
	.st1{font-family:'MyriadPro-Bold';}
	.st2{font-size:43px;}
</style>
<title>logo-vert</title>
<path class="st0" d="M86.3,45.9 M50.9,0l-3.6,34.3L41.1,5.4L21.7,9.5l6.2,28.9L0,44.3l4.9,23.1L54,77.7l11.2-25l5.4-50.6L50.9,0
	L50.9,0z M35.4,49.7c-1,0.9-2.4,0.8-3.8,0.4s-2-2.2-1.5-4.2s2.3-1.8,3.2-1.8l1,0.2c1.6,0.5,2.6,2.2,2,3.9
	C36.2,48.8,35.8,49.3,35.4,49.7L35.4,49.7L35.4,49.7z M49.6,51.3c-0.7,1.3-2.7,1.4-4.6,0.5s-1.3-2.2-1.1-3.2c0.1-0.5,0.3-1,0.6-1.4
	c0.5-0.7,1.3-1.2,2.1-1.3c1.4-0.1,2.7,0.6,3.4,1.8C50.7,48.9,50.4,50.1,49.6,51.3L49.6,51.3L49.6,51.3z"/>
<text transform="matrix(1 0 0 1 78.7343 56.7423)" class="st0 st1 st2">kangouroo</text>
</svg>
