<svg xmlns="http://www.w3.org/2000/svg" viewBox="0 0 289.9 77.7"><defs><style>.a{fill:#45b9b2;}</style></defs><title>logo-vert</title><path class="a" d="M112.1,65.7h6.6l-1.1-5.1V30h-6.3V44a9.8,9.8,0,0,0-7.6-3.5c-6.3,0-11.2,5.2-11.2,12.9s4.9,12.9,11.2,12.9a9.9,9.9,0,0,0,7.8-3.6l0.7,3.1h0Zm125-18.4a6,6,0,0,1,3.6,1.1l3-6.8a8.6,8.6,0,0,0-4.6-1.2,7.7,7.7,0,0,0-6.7,3.7L231.7,41h-6.5l1,4.8V65.7h6.3V50a4.9,4.9,0,0,1,4.6-2.6h0Zm18.5,12.3a6,6,0,0,1-6.4-6.2c0-3.8,2.7-6.2,6.4-6.2s6.4,2.4,6.4,6.2a6,6,0,0,1-6.4,6.2h0Zm-157-6.2c0-3.8,2.7-6.2,6.4-6.2s6.4,2.4,6.4,6.2A6.4,6.4,0,0,1,98.6,53.4Zm185,6.2a6,6,0,0,1-6.4-6.2c0-3.8,2.7-6.2,6.4-6.2s6.4,2.4,6.4,6.2A6,6,0,0,1,283.6,59.6ZM134.1,46.8c3.3,0,5.4,1.5,6.1,4.4H128c0.7-2.8,2.9-4.4,6.1-4.4h0Zm75.6,0c3.3,0,5.4,1.5,6.1,4.4H203.6c0.7-2.8,2.9-4.4,6.1-4.4h0Zm-30.9,19H189L195.6,41h-6.9l-4.8,20L179,41h-6.8l6.6,24.7h0Zm-16.3,0h6.3V41h-6.3V65.7Zm-27.5.5a18.3,18.3,0,0,0,9.9-2.8l-2.4-5.5a15.9,15.9,0,0,1-7.4,1.9c-3.3,0-5.7-1.3-6.7-3.7h17.8a13.8,13.8,0,0,0,.3-2.9c0-7.7-5.3-12.8-12.4-12.8s-12.4,5.2-12.4,12.9S127,66.2,135,66.2h0ZM296.1,53.4c0-7.7-5.3-12.9-12.5-12.9s-12.5,5.2-12.5,12.9,5.3,12.9,12.5,12.9,12.5-5.2,12.5-12.9h0ZM210.6,66.3a18.3,18.3,0,0,0,9.9-2.8L218,58a15.9,15.9,0,0,1-7.4,1.9c-3.3,0-5.7-1.3-6.7-3.7h17.8a13.8,13.8,0,0,0,.3-2.9c0-7.7-5.3-12.8-12.4-12.8s-12.4,5.2-12.4,12.9,5.2,12.9,13.2,12.9h0Zm45.1,0c7.2,0,12.5-5.2,12.5-12.9s-5.3-12.9-12.5-12.9-12.5,5.2-12.5,12.9,5.3,12.9,12.5,12.9h0Zm-105.1-.5h6.3V30h-6.3V65.7h0Zm15.2-28.1a4,4,0,1,0-4-4,3.9,3.9,0,0,0,4,4h0ZM57.1,7.5L53.5,41.8,47.3,12.9,27.9,17l6.2,28.9L6.2,51.8l4.9,23.1L60.2,85.2,71.4,60.2,76.8,9.6,57.1,7.5h0ZM41.6,57.2c-1,.9-2.4.8-3.8,0.4s-2-2.2-1.5-4.2,2.3-1.8,3.2-1.8l1,0.2a3.1,3.1,0,0,1,1,5.4h0Zm14.2,1.6c-0.7,1.3-2.7,1.4-4.6.5s-1.3-2.2-1.1-3.2a3,3,0,0,1,.6-1.4,3.1,3.1,0,0,1,2.1-1.3,3.7,3.7,0,0,1,3.4,1.8c0.7,1.2.4,2.4-.4,3.7h0Z" transform="translate(-6.2 -7.5)"/></svg>